<svg xmlns="http://www.w3.org/2000/svg" style="display:none">
  <defs>
    <g id="ico-stroke-defaults" fill="none" stroke="currentColor" stroke-width="1.7" stroke-linecap="round" stroke-linejoin="round"></g>
  </defs>

  <symbol id="icon-menu" viewBox="0 0 24 24" fill="none" stroke="currentColor" stroke-width="1.8" stroke-linecap="round">
    <line x1="3" y1="7" x2="21" y2="7"/><line x1="3" y1="12" x2="21" y2="12"/><line x1="3" y1="17" x2="21" y2="17"/>
  </symbol>

  <symbol id="icon-close" viewBox="0 0 24 24" fill="none" stroke="currentColor" stroke-width="1.8" stroke-linecap="round">
    <line x1="5" y1="5" x2="19" y2="19"/><line x1="19" y1="5" x2="5" y2="19"/>
  </symbol>

  <symbol id="icon-globe" viewBox="0 0 24 24" fill="none" stroke="currentColor" stroke-width="1.7" stroke-linecap="round" stroke-linejoin="round">
    <circle cx="12" cy="12" r="9"/><path d="M3 12h18M12 3c2.8 2.6 4.2 5.7 4.2 9s-1.4 6.4-4.2 9c-2.8-2.6-4.2-5.7-4.2-9s1.4-6.4 4.2-9z"/>
  </symbol>

  <symbol id="icon-phone" viewBox="0 0 24 24" fill="none" stroke="currentColor" stroke-width="1.7" stroke-linecap="round" stroke-linejoin="round">
    <path d="M6.6 10.8c1.4 2.9 3.7 5.2 6.6 6.6l2.2-2.2c.3-.3.7-.4 1-.2 1.1.4 2.3.6 3.6.6.6 0 1 .4 1 1V20c0 .6-.4 1-1 1C10.9 21 3 13.1 3 3c0-.6.4-1 1-1h3.4c.6 0 1 .4 1 1 0 1.3.2 2.5.6 3.6.1.4 0 .8-.2 1L6.6 10.8z"/>
  </symbol>

  <symbol id="icon-whatsapp" viewBox="0 0 24 24" fill="currentColor" stroke="none">
    <path d="M17.5 14.4c-.3-.1-1.7-.9-2-.9-.3-.1-.5-.1-.7.1-.2.3-.8.9-.9 1.1-.2.2-.3.2-.6.1-.3-.1-1.2-.5-2.3-1.5-.9-.8-1.4-1.7-1.6-2-.2-.3 0-.5.1-.6.1-.1.3-.3.4-.5.1-.2.2-.3.3-.5.1-.2 0-.4 0-.5-.1-.1-.7-1.6-.9-2.2-.2-.6-.5-.5-.7-.5h-.6c-.2 0-.5.1-.8.4-.3.3-1 1-1 2.4s1 2.8 1.2 3c.1.2 2 3.1 4.9 4.3.7.3 1.2.5 1.6.6.7.2 1.3.2 1.8.1.5-.1 1.7-.7 1.9-1.4.2-.7.2-1.3.2-1.4-.1-.2-.3-.2-.6-.4z"/>
    <path d="M12 2a10 10 0 0 0-8.6 15.1L2 22l5-1.3A10 10 0 1 0 12 2z"/>
  </symbol>

  <symbol id="icon-mail" viewBox="0 0 24 24" fill="none" stroke="currentColor" stroke-width="1.7" stroke-linecap="round" stroke-linejoin="round">
    <rect x="3" y="5" width="18" height="14" rx="2"/><path d="m4 7 8 6 8-6"/>
  </symbol>

  <symbol id="icon-pin" viewBox="0 0 24 24" fill="none" stroke="currentColor" stroke-width="1.7" stroke-linecap="round" stroke-linejoin="round">
    <path d="M12 22s7-6.6 7-12a7 7 0 1 0-14 0c0 5.4 7 12 7 12z"/><circle cx="12" cy="10" r="2.5"/>
  </symbol>

  <symbol id="icon-clock" viewBox="0 0 24 24" fill="none" stroke="currentColor" stroke-width="1.7" stroke-linecap="round" stroke-linejoin="round">
    <circle cx="12" cy="12" r="9"/><path d="M12 7v5l3.5 2"/>
  </symbol>

  <symbol id="icon-arrow-right" viewBox="0 0 24 24" fill="none" stroke="currentColor" stroke-width="1.9" stroke-linecap="round" stroke-linejoin="round">
    <line x1="4" y1="12" x2="20" y2="12"/><polyline points="13 5 20 12 13 19"/>
  </symbol>

  <symbol id="icon-chevron-left" viewBox="0 0 24 24" fill="none" stroke="currentColor" stroke-width="2" stroke-linecap="round" stroke-linejoin="round">
    <polyline points="15 4 7 12 15 20"/>
  </symbol>

  <symbol id="icon-chevron-right" viewBox="0 0 24 24" fill="none" stroke="currentColor" stroke-width="2" stroke-linecap="round" stroke-linejoin="round">
    <polyline points="9 4 17 12 9 20"/>
  </symbol>

  <symbol id="icon-plus" viewBox="0 0 24 24" fill="none" stroke="currentColor" stroke-width="2" stroke-linecap="round">
    <line x1="12" y1="4" x2="12" y2="20"/><line x1="4" y1="12" x2="20" y2="12"/>
  </symbol>

  <symbol id="icon-play" viewBox="0 0 24 24" fill="currentColor" stroke="none">
    <path d="M8 5v14l11-7z"/>
  </symbol>

  <symbol id="icon-expand" viewBox="0 0 24 24" fill="none" stroke="currentColor" stroke-width="1.8" stroke-linecap="round" stroke-linejoin="round">
    <path d="M9 3H3v6M15 3h6v6M21 15v6h-6M3 15v6h6"/>
  </symbol>

  <symbol id="icon-arrow-up" viewBox="0 0 24 24" fill="none" stroke="currentColor" stroke-width="2" stroke-linecap="round" stroke-linejoin="round">
    <line x1="12" y1="19" x2="12" y2="5"/><polyline points="5 12 12 5 19 12"/>
  </symbol>

  <symbol id="icon-star" viewBox="0 0 24 24" fill="currentColor" stroke="none">
    <path d="M12 2.5l2.9 6 6.6.7-4.9 4.5 1.3 6.5L12 16.9 6.1 20.2l1.3-6.5-4.9-4.5 6.6-.7L12 2.5z"/>
  </symbol>

  <symbol id="icon-leaf" viewBox="0 0 24 24" fill="none" stroke="currentColor" stroke-width="1.6" stroke-linecap="round" stroke-linejoin="round">
    <path d="M20 4c-9 0-16 5-16 14 9 0 16-5 16-14z"/><path d="M6 18c3-4 6-7 12-11"/>
  </symbol>

  <symbol id="icon-potted-plant" viewBox="0 0 24 24" fill="none" stroke="currentColor" stroke-width="1.6" stroke-linecap="round" stroke-linejoin="round">
    <path d="M9 11c0-3-2-4-2-4s3-1 5 1c0-3 2-5 2-5s2 2 2 5c2-2 5-1 5-1s-2 1-2 4"/>
    <path d="M12 11v6"/><path d="M6 14h12l-1.5 7h-9L6 14z"/>
  </symbol>

  <symbol id="icon-watering-can" viewBox="0 0 24 24" fill="none" stroke="currentColor" stroke-width="1.6" stroke-linecap="round" stroke-linejoin="round">
    <path d="M4 10h9a3 3 0 0 1 3 3v1H6a2 2 0 0 1-2-2v-2z"/>
    <path d="M16 10l5-2M20 8l1 2-2 1M13 10V7h-4v3"/>
    <path d="M7 17l-.7 3M13 17l.5 3"/>
  </symbol>

  <symbol id="icon-shears" viewBox="0 0 24 24" fill="none" stroke="currentColor" stroke-width="1.6" stroke-linecap="round" stroke-linejoin="round">
    <circle cx="6" cy="6" r="2.3"/><circle cx="6" cy="18" r="2.3"/>
    <line x1="7.8" y1="7.6" x2="20" y2="20"/><line x1="7.8" y1="16.4" x2="20" y2="4"/>
  </symbol>

  <symbol id="icon-berry" viewBox="0 0 24 24" fill="none" stroke="currentColor" stroke-width="1.6" stroke-linecap="round" stroke-linejoin="round">
    <path d="M12 8c-4 0-6.5 3.4-6.5 7.2C5.5 19 8.5 22 12 22s6.5-3 6.5-6.8C18.5 11.4 16 8 12 8z"/>
    <path d="M12 8V5M9 5c0-1.5 1-2.5 3-2.5S15 3.5 15 5"/>
    <circle cx="9.5" cy="13" r=".4" fill="currentColor"/><circle cx="12.5" cy="16" r=".4" fill="currentColor"/><circle cx="14" cy="12" r=".4" fill="currentColor"/><circle cx="10" cy="17.5" r=".4" fill="currentColor"/>
  </symbol>

  <symbol id="icon-greenhouse" viewBox="0 0 24 24" fill="none" stroke="currentColor" stroke-width="1.6" stroke-linecap="round" stroke-linejoin="round">
    <path d="M3 12a9 6 0 0 1 18 0"/><path d="M3 12v6h18v-6"/>
    <path d="M7 8v10M12 6v12M17 8v10"/>
  </symbol>

  <symbol id="icon-clipboard-check" viewBox="0 0 24 24" fill="none" stroke="currentColor" stroke-width="1.6" stroke-linecap="round" stroke-linejoin="round">
    <rect x="5" y="4" width="14" height="17" rx="2"/><path d="M9 3.5h6a1 1 0 0 1 1 1V6H8V4.5a1 1 0 0 1 1-1z"/>
    <path d="m9 13 2 2 4-4.5"/>
  </symbol>

  <symbol id="icon-microscope" viewBox="0 0 24 24" fill="none" stroke="currentColor" stroke-width="1.6" stroke-linecap="round" stroke-linejoin="round">
    <path d="M9 20h8M11 20v-3M7 9l4-4 6 6-2 2"/><circle cx="9" cy="7.5" r="1.6"/>
    <path d="M13 13l-5.5 5.5a2 2 0 1 1-3-3L10 9"/>
  </symbol>

  <symbol id="icon-flask" viewBox="0 0 24 24" fill="none" stroke="currentColor" stroke-width="1.6" stroke-linecap="round" stroke-linejoin="round">
    <path d="M10 3h4M10 3v6l-5.5 9a2 2 0 0 0 1.8 3h11.4a2 2 0 0 0 1.8-3L14 9V3"/>
    <path d="M8 15h8"/>
  </symbol>

  <symbol id="icon-droplet" viewBox="0 0 24 24" fill="none" stroke="currentColor" stroke-width="1.6" stroke-linecap="round" stroke-linejoin="round">
    <path d="M12 2.5S5 11 5 15.5a7 7 0 0 0 14 0C19 11 12 2.5 12 2.5z"/>
  </symbol>

  <symbol id="icon-bug" viewBox="0 0 24 24" fill="none" stroke="currentColor" stroke-width="1.6" stroke-linecap="round" stroke-linejoin="round">
    <rect x="8" y="8" width="8" height="10" rx="4"/><path d="M12 8V5M9 5l-1.5-1.5M15 5l1.5-1.5"/>
    <path d="M4 11h4M16 11h4M4 15h4M16 15h4M4 19l3-2M20 19l-3-2"/>
  </symbol>

  <symbol id="icon-users" viewBox="0 0 24 24" fill="none" stroke="currentColor" stroke-width="1.6" stroke-linecap="round" stroke-linejoin="round">
    <circle cx="9" cy="8" r="3.2"/><path d="M2.5 20c0-3.6 2.9-6 6.5-6s6.5 2.4 6.5 6"/>
    <circle cx="17" cy="8.5" r="2.4"/><path d="M15.5 14.2c2.7.3 4.7 2.4 4.7 5.8"/>
  </symbol>

  <symbol id="icon-sliders" viewBox="0 0 24 24" fill="none" stroke="currentColor" stroke-width="1.6" stroke-linecap="round" stroke-linejoin="round">
    <line x1="4" y1="6" x2="20" y2="6"/><circle cx="9" cy="6" r="2"/>
    <line x1="4" y1="12" x2="20" y2="12"/><circle cx="16" cy="12" r="2"/>
    <line x1="4" y1="18" x2="20" y2="18"/><circle cx="11" cy="18" r="2"/>
  </symbol>

  <symbol id="icon-wrench" viewBox="0 0 24 24" fill="none" stroke="currentColor" stroke-width="1.6" stroke-linecap="round" stroke-linejoin="round">
    <path d="M14.7 6.3a4 4 0 0 0-5.4 4.6L3 17.2l2.8 2.8 6.3-6.3a4 4 0 0 0 4.6-5.4l-2.6 2.6-2.1-.6-.6-2.1 2.3-2.9z"/>
  </symbol>

  <symbol id="icon-award" viewBox="0 0 24 24" fill="none" stroke="currentColor" stroke-width="1.6" stroke-linecap="round" stroke-linejoin="round">
    <circle cx="12" cy="8" r="5.2"/><path d="M8.5 12.5 7 21l5-2.5 5 2.5-1.5-8.5"/>
  </symbol>

  <symbol id="icon-badge-check" viewBox="0 0 24 24" fill="none" stroke="currentColor" stroke-width="1.6" stroke-linecap="round" stroke-linejoin="round">
    <path d="M12 2l2.4 1.3L17 3l.8 2.6L20 7l-.3 2.7L21 12l-1.3 2.3.3 2.7-2.2 1.4L17 21l-2.6-.3L12 22l-2.4-1.3L7 21l-.8-2.6L4 17l.3-2.7L3 12l1.3-2.3L4 7l2.2-1.4L7 3l2.6.3L12 2z"/>
    <path d="m9 12 2 2 4-4.5"/>
  </symbol>

  <symbol id="icon-search" viewBox="0 0 24 24" fill="none" stroke="currentColor" stroke-width="1.6" stroke-linecap="round" stroke-linejoin="round">
    <circle cx="11" cy="11" r="7"/><line x1="21" y1="21" x2="16.2" y2="16.2"/>
  </symbol>

  <symbol id="icon-map" viewBox="0 0 24 24" fill="none" stroke="currentColor" stroke-width="1.6" stroke-linecap="round" stroke-linejoin="round">
    <path d="M9 4 3 6v14l6-2 6 2 6-2V4l-6 2-6-2z"/><line x1="9" y1="4" x2="9" y2="18"/><line x1="15" y1="6" x2="15" y2="20"/>
  </symbol>

  <symbol id="icon-pen-tool" viewBox="0 0 24 24" fill="none" stroke="currentColor" stroke-width="1.6" stroke-linecap="round" stroke-linejoin="round">
    <path d="M4 20l4-1 10-10-3-3L5 16l-1 4z"/><path d="M14 6l3 3"/>
  </symbol>

  <symbol id="icon-shovel" viewBox="0 0 24 24" fill="none" stroke="currentColor" stroke-width="1.6" stroke-linecap="round" stroke-linejoin="round">
    <path d="M9 3l9 9-3 3-9-9"/><path d="M13 14l-4.5 4.5a2.3 2.3 0 0 1-3.2-3.2L10 11"/>
  </symbol>

  <symbol id="icon-refresh" viewBox="0 0 24 24" fill="none" stroke="currentColor" stroke-width="1.6" stroke-linecap="round" stroke-linejoin="round">
    <path d="M3 12a9 9 0 0 1 15.3-6.4L21 8"/><path d="M21 3v5h-5"/>
    <path d="M21 12a9 9 0 0 1-15.3 6.4L3 16"/><path d="M3 21v-5h5"/>
  </symbol>

  <symbol id="icon-calendar-check" viewBox="0 0 24 24" fill="none" stroke="currentColor" stroke-width="1.6" stroke-linecap="round" stroke-linejoin="round">
    <rect x="3" y="5" width="18" height="16" rx="2"/><line x1="3" y1="10" x2="21" y2="10"/>
    <line x1="8" y1="3" x2="8" y2="7"/><line x1="16" y1="3" x2="16" y2="7"/>
    <path d="m8 15 2.2 2.2L16 12.5"/>
  </symbol>

  <symbol id="icon-facebook" viewBox="0 0 24 24" fill="currentColor" stroke="none">
    <path d="M14 22v-8h2.7l.4-3.3H14V8.5c0-1 .3-1.6 1.7-1.6H17V4c-.3 0-1.4-.1-2.6-.1-2.6 0-4.4 1.6-4.4 4.5v2.3H7v3.3h3v8h4z"/>
  </symbol>

  <symbol id="icon-instagram" viewBox="0 0 24 24" fill="none" stroke="currentColor" stroke-width="1.6" stroke-linecap="round" stroke-linejoin="round">
    <rect x="3" y="3" width="18" height="18" rx="5"/><circle cx="12" cy="12" r="4.2"/><circle cx="17.2" cy="6.8" r="1" fill="currentColor" stroke="none"/>
  </symbol>

  <symbol id="icon-tiktok" viewBox="0 0 24 24" fill="currentColor" stroke="none">
    <path d="M14.5 2h3a5.4 5.4 0 0 0 4 4.3v3.1a8.4 8.4 0 0 1-4-1.1v6.9A6.8 6.8 0 1 1 10.9 8v3.3a3.5 3.5 0 1 0 2.5 3.4V2z"/>
  </symbol>

  <symbol id="icon-tree-row" viewBox="0 0 24 24" fill="none" stroke="currentColor" stroke-width="1.6" stroke-linecap="round" stroke-linejoin="round">
    <path d="M6 13a3 3 0 1 1 0-6 3 3 0 0 1 0 6z"/><path d="M6 13v7"/>
    <path d="M18 11a3 3 0 1 1 0-6 3 3 0 0 1 0 6z"/><path d="M18 11v9"/>
    <path d="M12 16a2.4 2.4 0 1 1 0-4.8 2.4 2.4 0 0 1 0 4.8z"/><path d="M12 16v4"/>
  </symbol>

  <symbol id="icon-quote" viewBox="0 0 24 24" fill="currentColor" stroke="none">
    <path d="M9.5 6C6.5 7.2 5 9.6 5 12.4c0 2 1.2 3.6 3.2 3.6a2.6 2.6 0 0 0 2.7-2.6c0-1.4-1-2.4-2.3-2.5.2-1.4 1.4-2.7 2.9-3.3L9.5 6zm8 0c-3 1.2-4.5 3.6-4.5 6.4 0 2 1.2 3.6 3.2 3.6a2.6 2.6 0 0 0 2.7-2.6c0-1.4-1-2.4-2.3-2.5.2-1.4 1.4-2.7 2.9-3.3L17.5 6z"/>
  </symbol>

  <symbol id="icon-shield-check" viewBox="0 0 24 24" fill="none" stroke="currentColor" stroke-width="1.6" stroke-linecap="round" stroke-linejoin="round">
    <path d="M12 3l7 3v6c0 4.8-3 8-7 9-4-1-7-4.2-7-9V6l7-3z"/><path d="m9 12 2 2 4-4.5"/>
  </symbol>
</svg>
